# xmcd
#
# Track frame offsets: 
#        150
#        19217
#        37217
#        54004
#        72420
#        86700
#        102515
#        119386
#        136553
#        168588
#        194410
#        227730
#        246636
#
# Disc length: 3439 seconds
#
# Revision: 3
# Processed by: cddbd v1.5.1PL0 Copyright (c) Steve Scherf et al.
# Submitted via: ExactAudioCopy v0.95a5
#
DISCID=b90d6d0d
DTITLE=Mike Bloomfield - Bloomfield Blues
DYEAR=1994
DGENRE=
TTITLE0=Eyesight To The Blind
TTITLE1=Linda Lou
TTITLE2=Kansas City Blues
TTITLE3=Medley: Darktown Strutters Ball, Mop Mop, Call Me A Dog
TTITLE4=I´m Glad I´m Jewish
TTITLE5=Great Gifts From Heaven
TTITLE6=Lo, Thou I Am With Thee
TTITLE7=Jockey Blues
TTITLE8=Between A Hard Place And The Ground
TTITLE9=Uncle Bob´s Barrelhouse Blues
TTITLE10=Wee Wee Hours
TTITLE11=Vamp In C
TTITLE12=One Of These Days
EXTD=
EXTT0=
EXTT1=
EXTT2=
EXTT3=
EXTT4=
EXTT5=
EXTT6=
EXTT7=
EXTT8=
EXTT9=
EXTT10=
EXTT11=
EXTT12=
PLAYORDER=
